<?xml version="1.0" standalone="no"?>
<!DOCTYPE svg PUBLIC "-//W3C//DTD SVG 20010904//EN"
 "http://www.w3.org/TR/2001/REC-SVG-20010904/DTD/svg10.dtd">
<svg version="1.0" xmlns="http://www.w3.org/2000/svg"
 width="4168.000000pt" height="3834.000000pt" viewBox="0 0 4168.000000 3834.000000"
 preserveAspectRatio="xMidYMid meet">

<g transform="translate(0.000000,3834.000000) scale(0.100000,-0.100000)"
fill="#000000" stroke="none">
<path d="M3500 20123 c-402 -63 -699 -325 -802 -704 -32 -119 -32 -356 0 -474
89 -324 329 -569 659 -672 l88 -28 945 -5 945 -5 80 -27 c182 -62 312 -174
396 -343 123 -248 78 -531 -116 -734 -84 -87 -166 -140 -280 -179 l-80 -27
-1332 -3 -1333 -3 0 -145 0 -144 1353 3 1352 3 83 22 c163 43 302 121 421 236
125 121 206 253 258 423 25 81 27 101 27 263 0 162 -2 182 -27 263 -50 161
-117 277 -231 396 -123 127 -270 215 -443 264 -77 21 -90 21 -1023 27 -1047 6
-974 1 -1115 72 -170 86 -300 251 -346 438 -34 137 -9 316 64 455 47 90 183
221 277 268 156 77 39 71 1523 75 l1327 2 0 145 0 145 -1322 -1 c-728 -1
-1334 -3 -1348 -6z"/>
<path d="M7070 19985 l0 -145 803 -2 802 -3 3 -1602 2 -1603 145 0 145 0 0
1605 0 1605 805 0 805 0 0 145 0 145 -1755 0 -1755 0 0 -145z"/>
<path d="M11185 18388 c-539 -958 -981 -1745 -983 -1750 -2 -4 77 -8 176 -8
l179 0 804 1431 c772 1374 804 1430 819 1408 8 -13 371 -655 805 -1428 l790
-1406 182 -3 182 -2 -58 102 c-32 57 -473 841 -981 1743 -507 902 -925 1643
-929 1647 -3 4 -447 -777 -986 -1734z"/>
<path d="M15040 18380 l0 -1750 145 0 145 0 0 805 0 806 1188 -3 1187 -3 80
-27 c183 -62 312 -174 396 -343 67 -135 69 -156 69 -727 l0 -508 145 0 146 0
-3 563 -3 562 -28 88 c-31 99 -88 218 -141 292 -46 64 -147 167 -209 212 -26
20 -47 37 -45 38 2 1 38 30 81 64 144 114 269 305 319 486 18 67 22 108 22
245 1 192 -11 251 -80 399 -122 261 -335 441 -619 522 l-80 23 -1357 3 -1358
4 0 -1751z m2745 1428 c185 -63 320 -180 400 -350 48 -101 68 -202 62 -308
-17 -271 -188 -495 -448 -586 l-84 -29 -1192 -3 -1193 -2 0 648 c0 357 3 652
7 656 4 3 538 5 1187 4 l1181 -3 80 -27z"/>
<path d="M19440 18380 l0 -1750 145 0 145 0 2 402 3 402 444 373 c244 205 447
373 451 373 4 0 422 -349 929 -775 l923 -775 231 0 c184 1 229 3 216 13 -79
61 -2059 1731 -2059 1737 0 4 462 396 1028 870 565 475 1031 867 1037 871 5 5
-94 9 -222 9 l-232 0 -1373 -1154 -1373 -1154 -3 1154 -2 1154 -145 0 -145 0
0 -1750z"/>
<path d="M23850 19986 l0 -145 963 -4 c931 -3 965 -4 1058 -24 339 -74 598
-223 825 -475 163 -182 278 -413 336 -676 18 -80 22 -130 22 -282 0 -152 -4
-202 -22 -282 -64 -292 -183 -515 -385 -724 -216 -224 -460 -358 -776 -427
-93 -20 -127 -21 -1058 -24 l-963 -4 0 -145 0 -144 920 0 c949 0 1028 3 1210
42 645 138 1160 642 1325 1295 59 236 59 590 0 826 -113 449 -395 835 -785
1078 -217 135 -466 219 -732 248 -62 7 -433 11 -1018 11 l-920 0 0 -144z"/>
<path d="M28250 19985 l0 -145 145 0 145 0 0 -1460 0 -1460 -145 0 -145 0 0
-145 0 -145 440 0 440 0 0 145 0 144 -147 3 -148 3 0 1455 0 1455 148 3 147 3
0 144 0 145 -440 0 -440 0 0 -145z"/>
<path d="M31580 20119 c-714 -81 -1321 -609 -1494 -1301 -92 -367 -68 -748 70
-1091 241 -599 791 -1015 1436 -1086 62 -7 433 -11 1018 -11 l920 0 0 145 0
145 -888 0 c-571 0 -928 4 -998 11 -262 26 -515 123 -730 279 -93 67 -274 256
-337 352 -171 256 -250 517 -250 818 0 301 79 560 250 818 63 96 243 283 337
352 214 156 468 253 730 279 70 7 427 11 998 11 l888 0 0 145 0 145 -937 -1
c-516 -1 -972 -5 -1013 -10z"/>
<path d="M35980 20119 c-734 -85 -1344 -628 -1508 -1344 -35 -153 -45 -274
-39 -459 9 -240 49 -423 137 -627 252 -580 793 -979 1422 -1048 62 -7 433 -11
1018 -11 l920 0 0 144 0 145 -957 4 c-1041 4 -999 2 -1208 62 -117 34 -291
118 -407 196 -119 81 -295 257 -375 374 -130 193 -218 418 -248 638 l-6 47
1600 0 1601 0 0 145 0 145 -1600 0 c-880 0 -1600 3 -1600 8 0 4 7 47 16 97 72
410 330 781 697 999 172 103 387 173 599 196 60 6 437 10 993 10 l895 0 0 145
0 145 -937 -1 c-516 -1 -972 -5 -1013 -10z"/>
<path d="M11963 18440 c-155 -33 -295 -110 -405 -222 -88 -89 -145 -182 -185
-303 -24 -72 -27 -95 -27 -225 -1 -163 12 -224 71 -345 120 -244 356 -404 634
-430 137 -13 332 33 455 106 119 71 247 212 305 337 66 144 87 340 53 495 -47
211 -206 417 -396 513 -110 56 -195 76 -333 80 -71 2 -149 -1 -172 -6z m591
-374 c60 -34 107 -80 136 -135 13 -25 12 -27 -40 -56 -51 -28 -138 -134 -265
-321 -33 -48 -115 -131 -180 -182 -105 -82 -279 -115 -411 -76 -62 18 -155 77
-202 128 -41 46 -112 155 -112 173 0 11 7 13 33 6 17 -4 68 -8 112 -8 137 0
200 44 345 235 99 131 177 207 247 240 72 34 100 40 190 36 72 -3 90 -8 147
-40z m-769 -18 c15 -33 28 -46 55 -54 41 -13 41 -25 3 -38 -40 -12 -60 -33
-67 -67 -8 -40 -19 -36 -36 13 -13 36 -21 44 -53 53 -21 6 -38 15 -38 20 0 5
17 14 38 20 32 9 40 17 53 53 8 23 17 42 20 42 3 0 14 -19 25 -42z m749 -622
c44 -18 63 -64 46 -106 -15 -37 -37 -50 -84 -50 -62 0 -97 75 -60 128 13 19
39 36 62 41 1 1 17 -5 36 -13z"/>
</g>
</svg>
